# xmcd
#
# Track frame offsets:
#	150
#	11377
#	22388
#	32168
#	42790
#	53243
#	64780
#	75037
#	85641
#	96856
#	108287
#	122576
#
# Disc length: 1767 seconds
#
# Revision: 1
# Processed by: cddbd v1.5.2PL0 Copyright (c) Steve Scherf et al.
# Submitted via: audiograbber 1.83.01
#
DISCID=8606e50c
DTITLE=Patsy Cline - The Best Of Patsy Cline (DISK 2)
DYEAR=2008
DGENRE=Country
TTITLE0=Hungry for Love
TTITLE1=I Can't Forget You
TTITLE2=Turn The Cards Slowly
TTITLE3=I Don't Wanta
TTITLE4=I Love You Honey
TTITLE5=I've Loved and Lost Again
TTITLE6=Pick Me Up on Your Way Down
TTITLE7=Stop, Look and Listen
TTITLE8=That Wonderful Someone
TTITLE9=The Heart You Break May Be Your Own
TTITLE10=Then You'll Know
TTITLE11=Three Cigarettes in an Ashtray
EXTD=
EXTT0=
EXTT1=
EXTT2=
EXTT3=
EXTT4=
EXTT5=
EXTT6=
EXTT7=
EXTT8=
EXTT9=
EXTT10=
EXTT11=
PLAYORDER=
